<svg width="238" height="175" viewBox="0 0 238 175" fill="none" xmlns="http://www.w3.org/2000/svg">
<rect y="53" width="20" height="13" fill="#646464"/>
<rect x="25.5" y="53.5" width="19" height="12" stroke="#646464"/>
<rect x="50.5" y="53.5" width="19" height="12" stroke="#646464"/>
<rect x="75.5" y="53.5" width="19" height="12" stroke="#646464"/>
<rect x="100.5" y="53.5" width="19" height="12" stroke="#646464"/>
<rect x="0.5" y="71.5" width="19" height="12" stroke="#646464"/>
<rect x="25.5" y="71.5" width="19" height="12" stroke="#646464"/>
<rect x="50.5" y="71.5" width="19" height="12" stroke="#646464"/>
<rect x="75.5" y="71.5" width="19" height="12" stroke="#646464"/>
<rect x="100.5" y="71.5" width="19" height="12" stroke="#646464"/>
<rect x="0.5" y="89.5" width="19" height="12" stroke="#646464"/>
<rect x="25.5" y="89.5" width="19" height="12" stroke="#646464"/>
<rect x="50.5" y="89.5" width="19" height="12" stroke="#646464"/>
<rect x="75.5" y="89.5" width="19" height="12" stroke="#646464"/>
<rect x="100.5" y="89.5" width="19" height="12" stroke="#646464"/>
<rect x="0.5" y="107.5" width="19" height="12" stroke="#646464"/>
<rect x="25.5" y="107.5" width="19" height="12" stroke="#646464"/>
<rect x="50.5" y="107.5" width="19" height="12" stroke="#646464"/>
<rect x="75.5" y="107.5" width="19" height="12" stroke="#646464"/>
<rect x="100.5" y="107.5" width="19" height="12" stroke="#646464"/>
<rect x="0.5" y="125.5" width="19" height="12" stroke="#646464"/>
<rect x="25.5" y="125.5" width="19" height="12" stroke="#646464"/>
<rect x="50.5" y="125.5" width="19" height="12" stroke="#646464"/>
<rect x="75.5" y="125.5" width="19" height="12" stroke="#646464"/>
<rect x="100.5" y="125.5" width="19" height="12" stroke="#646464"/>
<rect x="0.5" y="143.5" width="19" height="12" stroke="#646464"/>
<rect x="25.5" y="143.5" width="19" height="12" stroke="#646464"/>
<rect x="50.5" y="143.5" width="19" height="12" stroke="#646464"/>
<rect x="75.5" y="143.5" width="19" height="12" stroke="#646464"/>
<rect x="100.5" y="143.5" width="19" height="12" stroke="#646464"/>
<rect x="0.5" y="161.5" width="19" height="12" stroke="#646464"/>
<rect x="25.5" y="161.5" width="19" height="12" stroke="#646464"/>
<rect x="50.5" y="161.5" width="19" height="12" stroke="#646464"/>
<rect x="75.5" y="161.5" width="19" height="12" stroke="#646464"/>
<rect x="100" y="161" width="20" height="13" fill="#646464"/>
<path d="M26.78 3.636L24.056 8.844V12H22.964V8.844L20.228 3.636H21.44L23.504 7.872L25.568 3.636H26.78ZM33.9318 8.46C33.9318 8.668 33.9198 8.888 33.8958 9.12H28.6398C28.6798 9.768 28.8998 10.276 29.2998 10.644C29.7078 11.004 30.1998 11.184 30.7758 11.184C31.2478 11.184 31.6398 11.076 31.9518 10.86C32.2718 10.636 32.4958 10.34 32.6238 9.972H33.7998C33.6238 10.604 33.2718 11.12 32.7438 11.52C32.2158 11.912 31.5598 12.108 30.7758 12.108C30.1518 12.108 29.5918 11.968 29.0958 11.688C28.6078 11.408 28.2238 11.012 27.9438 10.5C27.6638 9.98 27.5238 9.38 27.5238 8.7C27.5238 8.02 27.6598 7.424 27.9318 6.912C28.2038 6.4 28.5838 6.008 29.0718 5.736C29.5678 5.456 30.1358 5.316 30.7758 5.316C31.3998 5.316 31.9518 5.452 32.4318 5.724C32.9118 5.996 33.2798 6.372 33.5358 6.852C33.7998 7.324 33.9318 7.86 33.9318 8.46ZM32.8038 8.232C32.8038 7.816 32.7118 7.46 32.5278 7.164C32.3438 6.86 32.0918 6.632 31.7718 6.48C31.4598 6.32 31.1118 6.24 30.7278 6.24C30.1758 6.24 29.7038 6.416 29.3118 6.768C28.9278 7.12 28.7078 7.608 28.6518 8.232H32.8038ZM34.9652 8.688C34.9652 8.016 35.1012 7.428 35.3732 6.924C35.6452 6.412 36.0172 6.016 36.4892 5.736C36.9692 5.456 37.5012 5.316 38.0852 5.316C38.6612 5.316 39.1612 5.44 39.5852 5.688C40.0092 5.936 40.3252 6.248 40.5332 6.624V5.424H41.6372V12H40.5332V10.776C40.3172 11.16 39.9932 11.48 39.5612 11.736C39.1372 11.984 38.6412 12.108 38.0732 12.108C37.4892 12.108 36.9612 11.964 36.4892 11.676C36.0172 11.388 35.6452 10.984 35.3732 10.464C35.1012 9.944 34.9652 9.352 34.9652 8.688ZM40.5332 8.7C40.5332 8.204 40.4332 7.772 40.2332 7.404C40.0332 7.036 39.7612 6.756 39.4172 6.564C39.0812 6.364 38.7092 6.264 38.3012 6.264C37.8932 6.264 37.5212 6.36 37.1852 6.552C36.8492 6.744 36.5812 7.024 36.3812 7.392C36.1812 7.76 36.0812 8.192 36.0812 8.688C36.0812 9.192 36.1812 9.632 36.3812 10.008C36.5812 10.376 36.8492 10.66 37.1852 10.86C37.5212 11.052 37.8932 11.148 38.3012 11.148C38.7092 11.148 39.0812 11.052 39.4172 10.86C39.7612 10.66 40.0332 10.376 40.2332 10.008C40.4332 9.632 40.5332 9.196 40.5332 8.7ZM44.5746 6.492C44.7666 6.116 45.0386 5.824 45.3906 5.616C45.7506 5.408 46.1866 5.304 46.6986 5.304V6.432H46.4106C45.1866 6.432 44.5746 7.096 44.5746 8.424V12H43.4826V5.424H44.5746V6.492ZM59.9184 5.424L57.8664 12H56.7384L55.1544 6.78L53.5704 12H52.4424L50.3784 5.424H51.4944L53.0064 10.944L54.6384 5.424H55.7544L57.3504 10.956L58.8384 5.424H59.9184ZM61.5661 4.356C61.3581 4.356 61.1821 4.284 61.0381 4.14C60.8941 3.996 60.8221 3.82 60.8221 3.612C60.8221 3.404 60.8941 3.228 61.0381 3.084C61.1821 2.94 61.3581 2.868 61.5661 2.868C61.7661 2.868 61.9341 2.94 62.0701 3.084C62.2141 3.228 62.2861 3.404 62.2861 3.612C62.2861 3.82 62.2141 3.996 62.0701 4.14C61.9341 4.284 61.7661 4.356 61.5661 4.356ZM62.0941 5.424V12H61.0021V5.424H62.0941ZM65.2873 6.324V10.2C65.2873 10.52 65.3553 10.748 65.4913 10.884C65.6273 11.012 65.8633 11.076 66.1992 11.076H67.0033V12H66.0193C65.4113 12 64.9553 11.86 64.6513 11.58C64.3473 11.3 64.1953 10.84 64.1953 10.2V6.324H63.3433V5.424H64.1953V3.768H65.2873V5.424H67.0033V6.324H65.2873ZM71.5903 5.304C72.0863 5.304 72.5343 5.412 72.9343 5.628C73.3343 5.836 73.6463 6.152 73.8703 6.576C74.1023 7 74.2183 7.516 74.2183 8.124V12H73.1383V8.28C73.1383 7.624 72.9743 7.124 72.6463 6.78C72.3183 6.428 71.8703 6.252 71.3023 6.252C70.7263 6.252 70.2663 6.432 69.9223 6.792C69.5863 7.152 69.4183 7.676 69.4183 8.364V12H68.3263V3.12H69.4183V6.36C69.6343 6.024 69.9303 5.764 70.3063 5.58C70.6903 5.396 71.1183 5.304 71.5903 5.304ZM80.5333 6.324V10.2C80.5333 10.52 80.6013 10.748 80.7373 10.884C80.8733 11.012 81.1093 11.076 81.4453 11.076H82.2493V12H81.2653C80.6573 12 80.2013 11.86 79.8973 11.58C79.5933 11.3 79.4413 10.84 79.4413 10.2V6.324H78.5893V5.424H79.4413V3.768H80.5333V5.424H82.2493V6.324H80.5333ZM86.8364 5.304C87.3324 5.304 87.7804 5.412 88.1804 5.628C88.5804 5.836 88.8924 6.152 89.1164 6.576C89.3484 7 89.4644 7.516 89.4644 8.124V12H88.3844V8.28C88.3844 7.624 88.2204 7.124 87.8924 6.78C87.5644 6.428 87.1164 6.252 86.5484 6.252C85.9724 6.252 85.5124 6.432 85.1684 6.792C84.8324 7.152 84.6644 7.676 84.6644 8.364V12H83.5724V3.12H84.6644V6.36C84.8804 6.024 85.1764 5.764 85.5524 5.58C85.9364 5.396 86.3644 5.304 86.8364 5.304ZM97.2482 8.46C97.2482 8.668 97.2362 8.888 97.2122 9.12H91.9562C91.9962 9.768 92.2162 10.276 92.6162 10.644C93.0242 11.004 93.5162 11.184 94.0922 11.184C94.5642 11.184 94.9562 11.076 95.2682 10.86C95.5882 10.636 95.8122 10.34 95.9402 9.972H97.1162C96.9402 10.604 96.5882 11.12 96.0602 11.52C95.5322 11.912 94.8762 12.108 94.0922 12.108C93.4682 12.108 92.9082 11.968 92.4122 11.688C91.9242 11.408 91.5402 11.012 91.2602 10.5C90.9802 9.98 90.8402 9.38 90.8402 8.7C90.8402 8.02 90.9762 7.424 91.2482 6.912C91.5202 6.4 91.9002 6.008 92.3882 5.736C92.8842 5.456 93.4522 5.316 94.0922 5.316C94.7162 5.316 95.2682 5.452 95.7482 5.724C96.2282 5.996 96.5962 6.372 96.8522 6.852C97.1162 7.324 97.2482 7.86 97.2482 8.46ZM96.1202 8.232C96.1202 7.816 96.0282 7.46 95.8442 7.164C95.6602 6.86 95.4082 6.632 95.0882 6.48C94.7762 6.32 94.4282 6.24 94.0442 6.24C93.4922 6.24 93.0202 6.416 92.6282 6.768C92.2442 7.12 92.0242 7.608 91.9682 8.232H96.1202ZM22.016 18.12V27H20.924V18.12H22.016ZM26.7451 27.108C26.1291 27.108 25.5691 26.968 25.0651 26.688C24.5691 26.408 24.1771 26.012 23.8891 25.5C23.6091 24.98 23.4691 24.38 23.4691 23.7C23.4691 23.028 23.6131 22.436 23.9011 21.924C24.1971 21.404 24.5971 21.008 25.1011 20.736C25.6051 20.456 26.1691 20.316 26.7931 20.316C27.4171 20.316 27.9811 20.456 28.4851 20.736C28.9891 21.008 29.3851 21.4 29.6731 21.912C29.9691 22.424 30.1171 23.02 30.1171 23.7C30.1171 24.38 29.9651 24.98 29.6611 25.5C29.3651 26.012 28.9611 26.408 28.4491 26.688C27.9371 26.968 27.3691 27.108 26.7451 27.108ZM26.7451 26.148C27.1371 26.148 27.5051 26.056 27.8491 25.872C28.1931 25.688 28.4691 25.412 28.6771 25.044C28.8931 24.676 29.0011 24.228 29.0011 23.7C29.0011 23.172 28.8971 22.724 28.6891 22.356C28.4811 21.988 28.2091 21.716 27.8731 21.54C27.5371 21.356 27.1731 21.264 26.7811 21.264C26.3811 21.264 26.0131 21.356 25.6771 21.54C25.3491 21.716 25.0851 21.988 24.8851 22.356C24.6851 22.724 24.5851 23.172 24.5851 23.7C24.5851 24.236 24.6811 24.688 24.8731 25.056C25.0731 25.424 25.3371 25.7 25.6651 25.884C25.9931 26.06 26.3531 26.148 26.7451 26.148ZM40.3129 20.424L38.2609 27H37.1329L35.5489 21.78L33.9649 27H32.8369L30.7729 20.424H31.8889L33.4009 25.944L35.0329 20.424H36.1489L37.7449 25.956L39.2329 20.424H40.3129ZM47.3967 23.46C47.3967 23.668 47.3847 23.888 47.3607 24.12H42.1047C42.1447 24.768 42.3647 25.276 42.7647 25.644C43.1727 26.004 43.6647 26.184 44.2407 26.184C44.7127 26.184 45.1047 26.076 45.4167 25.86C45.7367 25.636 45.9607 25.34 46.0887 24.972H47.2647C47.0887 25.604 46.7367 26.12 46.2087 26.52C45.6807 26.912 45.0247 27.108 44.2407 27.108C43.6167 27.108 43.0567 26.968 42.5607 26.688C42.0727 26.408 41.6887 26.012 41.4087 25.5C41.1287 24.98 40.9887 24.38 40.9887 23.7C40.9887 23.02 41.1247 22.424 41.3967 21.912C41.6687 21.4 42.0487 21.008 42.5367 20.736C43.0327 20.456 43.6007 20.316 44.2407 20.316C44.8647 20.316 45.4167 20.452 45.8967 20.724C46.3767 20.996 46.7447 21.372 47.0007 21.852C47.2647 22.324 47.3967 22.86 47.3967 23.46ZM46.2687 23.232C46.2687 22.816 46.1767 22.46 45.9927 22.164C45.8087 21.86 45.5567 21.632 45.2367 21.48C44.9247 21.32 44.5767 21.24 44.1927 21.24C43.6407 21.24 43.1687 21.416 42.7767 21.768C42.3927 22.12 42.1727 22.608 42.1167 23.232H46.2687ZM51.1661 27.108C50.6621 27.108 50.2101 27.024 49.8101 26.856C49.4101 26.68 49.0941 26.44 48.8621 26.136C48.6301 25.824 48.5021 25.468 48.4781 25.068H49.6061C49.6381 25.396 49.7901 25.664 50.0621 25.872C50.3421 26.08 50.7061 26.184 51.1541 26.184C51.5701 26.184 51.8981 26.092 52.1381 25.908C52.3781 25.724 52.4981 25.492 52.4981 25.212C52.4981 24.924 52.3701 24.712 52.1141 24.576C51.8581 24.432 51.4621 24.292 50.9261 24.156C50.4381 24.028 50.0381 23.9 49.7261 23.772C49.4221 23.636 49.1581 23.44 48.9341 23.184C48.7181 22.92 48.6101 22.576 48.6101 22.152C48.6101 21.816 48.7101 21.508 48.9101 21.228C49.1101 20.948 49.3941 20.728 49.7621 20.568C50.1301 20.4 50.5501 20.316 51.0221 20.316C51.7501 20.316 52.3381 20.5 52.7861 20.868C53.2341 21.236 53.4741 21.74 53.5061 22.38H52.4141C52.3901 22.036 52.2501 21.76 51.9941 21.552C51.7461 21.344 51.4101 21.24 50.9861 21.24C50.5941 21.24 50.2821 21.324 50.0501 21.492C49.8181 21.66 49.7021 21.88 49.7021 22.152C49.7021 22.368 49.7701 22.548 49.9061 22.692C50.0501 22.828 50.2261 22.94 50.4341 23.028C50.6501 23.108 50.9461 23.2 51.3221 23.304C51.7941 23.432 52.1781 23.56 52.4741 23.688C52.7701 23.808 53.0221 23.992 53.2301 24.24C53.4461 24.488 53.5581 24.812 53.5661 25.212C53.5661 25.572 53.4661 25.896 53.2661 26.184C53.0661 26.472 52.7821 26.7 52.4141 26.868C52.0541 27.028 51.6381 27.108 51.1661 27.108ZM56.4396 21.324V25.2C56.4396 25.52 56.5076 25.748 56.6436 25.884C56.7796 26.012 57.0156 26.076 57.3516 26.076H58.1556V27H57.1716C56.5636 27 56.1076 26.86 55.8036 26.58C55.4996 26.3 55.3476 25.84 55.3476 25.2V21.324H54.4956V20.424H55.3476V18.768H56.4396V20.424H58.1556V21.324H56.4396ZM62.2699 23.7C62.2699 23.02 62.4059 22.428 62.6779 21.924C62.9499 21.412 63.3259 21.016 63.8059 20.736C64.2939 20.456 64.8499 20.316 65.4739 20.316C66.2819 20.316 66.9459 20.512 67.4659 20.904C67.9939 21.296 68.3419 21.84 68.5099 22.536H67.3339C67.2219 22.136 67.0019 21.82 66.6739 21.588C66.3539 21.356 65.9539 21.24 65.4739 21.24C64.8499 21.24 64.3459 21.456 63.9619 21.888C63.5779 22.312 63.3859 22.916 63.3859 23.7C63.3859 24.492 63.5779 25.104 63.9619 25.536C64.3459 25.968 64.8499 26.184 65.4739 26.184C65.9539 26.184 66.3539 26.072 66.6739 25.848C66.9939 25.624 67.2139 25.304 67.3339 24.888H68.5099C68.3339 25.56 67.9819 26.1 67.4539 26.508C66.9259 26.908 66.2659 27.108 65.4739 27.108C64.8499 27.108 64.2939 26.968 63.8059 26.688C63.3259 26.408 62.9499 26.012 62.6779 25.5C62.4059 24.988 62.2699 24.388 62.2699 23.7ZM71.059 18.12V27H69.967V18.12H71.059ZM75.7881 27.108C75.1721 27.108 74.6121 26.968 74.1081 26.688C73.6121 26.408 73.2201 26.012 72.9321 25.5C72.6521 24.98 72.5121 24.38 72.5121 23.7C72.5121 23.028 72.6561 22.436 72.9441 21.924C73.2401 21.404 73.6401 21.008 74.1441 20.736C74.6481 20.456 75.2121 20.316 75.8361 20.316C76.4601 20.316 77.0241 20.456 77.5281 20.736C78.0321 21.008 78.4281 21.4 78.7161 21.912C79.0121 22.424 79.1601 23.02 79.1601 23.7C79.1601 24.38 79.0081 24.98 78.7041 25.5C78.4081 26.012 78.0041 26.408 77.4921 26.688C76.9801 26.968 76.4121 27.108 75.7881 27.108ZM75.7881 26.148C76.1801 26.148 76.5481 26.056 76.8921 25.872C77.2361 25.688 77.5121 25.412 77.7201 25.044C77.9361 24.676 78.0441 24.228 78.0441 23.7C78.0441 23.172 77.9401 22.724 77.7321 22.356C77.5241 21.988 77.2521 21.716 76.9161 21.54C76.5801 21.356 76.2161 21.264 75.8241 21.264C75.4241 21.264 75.0561 21.356 74.7201 21.54C74.3921 21.716 74.1281 21.988 73.9281 22.356C73.7281 22.724 73.6281 23.172 73.6281 23.7C73.6281 24.236 73.7241 24.688 73.9161 25.056C74.1161 25.424 74.3801 25.7 74.7081 25.884C75.0361 26.06 75.3961 26.148 75.7881 26.148ZM86.4279 20.424V27H85.3359V26.028C85.1279 26.364 84.8359 26.628 84.4599 26.82C84.0919 27.004 83.6839 27.096 83.2359 27.096C82.7239 27.096 82.2639 26.992 81.8559 26.784C81.4479 26.568 81.1239 26.248 80.8839 25.824C80.6519 25.4 80.5359 24.884 80.5359 24.276V20.424H81.6159V24.132C81.6159 24.78 81.7799 25.28 82.1079 25.632C82.4359 25.976 82.8839 26.148 83.4519 26.148C84.0359 26.148 84.4959 25.968 84.8319 25.608C85.1679 25.248 85.3359 24.724 85.3359 24.036V20.424H86.4279ZM87.8637 23.688C87.8637 23.016 87.9997 22.428 88.2717 21.924C88.5437 21.412 88.9157 21.016 89.3877 20.736C89.8677 20.456 90.4037 20.316 90.9957 20.316C91.5077 20.316 91.9837 20.436 92.4237 20.676C92.8637 20.908 93.1997 21.216 93.4317 21.6V18.12H94.5357V27H93.4317V25.764C93.2157 26.156 92.8957 26.48 92.4717 26.736C92.0477 26.984 91.5517 27.108 90.9837 27.108C90.3997 27.108 89.8677 26.964 89.3877 26.676C88.9157 26.388 88.5437 25.984 88.2717 25.464C87.9997 24.944 87.8637 24.352 87.8637 23.688ZM93.4317 23.7C93.4317 23.204 93.3317 22.772 93.1317 22.404C92.9317 22.036 92.6597 21.756 92.3157 21.564C91.9797 21.364 91.6077 21.264 91.1997 21.264C90.7917 21.264 90.4197 21.36 90.0837 21.552C89.7477 21.744 89.4797 22.024 89.2797 22.392C89.0797 22.76 88.9797 23.192 88.9797 23.688C88.9797 24.192 89.0797 24.632 89.2797 25.008C89.4797 25.376 89.7477 25.66 90.0837 25.86C90.4197 26.052 90.7917 26.148 91.1997 26.148C91.6077 26.148 91.9797 26.052 92.3157 25.86C92.6597 25.66 92.9317 25.376 93.1317 25.008C93.3317 24.632 93.4317 24.196 93.4317 23.7ZM99.1603 20.28C99.1603 19.736 99.3243 19.304 99.6523 18.984C99.9803 18.656 100.4 18.492 100.912 18.492C101.424 18.492 101.844 18.656 102.172 18.984C102.5 19.304 102.664 19.736 102.664 20.28C102.664 20.832 102.5 21.272 102.172 21.6C101.844 21.92 101.424 22.08 100.912 22.08C100.4 22.08 99.9803 21.92 99.6523 21.6C99.3243 21.272 99.1603 20.832 99.1603 20.28ZM106.168 18.624L101.308 27H100.228L105.088 18.624H106.168ZM100.912 19.164C100.64 19.164 100.424 19.26 100.264 19.452C100.112 19.636 100.036 19.912 100.036 20.28C100.036 20.648 100.112 20.928 100.264 21.12C100.424 21.312 100.64 21.408 100.912 21.408C101.184 21.408 101.4 21.312 101.56 21.12C101.72 20.92 101.8 20.64 101.8 20.28C101.8 19.912 101.72 19.636 101.56 19.452C101.4 19.26 101.184 19.164 100.912 19.164ZM103.756 25.344C103.756 24.792 103.92 24.356 104.248 24.036C104.576 23.708 104.996 23.544 105.508 23.544C106.02 23.544 106.436 23.708 106.756 24.036C107.084 24.356 107.248 24.792 107.248 25.344C107.248 25.888 107.084 26.324 106.756 26.652C106.436 26.98 106.02 27.144 105.508 27.144C104.996 27.144 104.576 26.984 104.248 26.664C103.92 26.336 103.756 25.896 103.756 25.344ZM105.496 24.228C105.224 24.228 105.008 24.324 104.848 24.516C104.688 24.7 104.608 24.976 104.608 25.344C104.608 25.704 104.688 25.98 104.848 26.172C105.008 26.356 105.224 26.448 105.496 26.448C105.768 26.448 105.984 26.356 106.144 26.172C106.304 25.98 106.384 25.704 106.384 25.344C106.384 24.976 106.304 24.7 106.144 24.516C105.984 24.324 105.768 24.228 105.496 24.228ZM109.034 27.072C108.826 27.072 108.65 27 108.506 26.856C108.362 26.712 108.29 26.536 108.29 26.328C108.29 26.12 108.362 25.944 108.506 25.8C108.65 25.656 108.826 25.584 109.034 25.584C109.234 25.584 109.402 25.656 109.538 25.8C109.682 25.944 109.754 26.12 109.754 26.328C109.754 26.536 109.682 26.712 109.538 26.856C109.402 27 109.234 27.072 109.034 27.072Z" fill="#646464"/>
<path d="M147.78 126.636L145.056 131.844V135H143.964V131.844L141.228 126.636H142.44L144.504 130.872L146.568 126.636H147.78ZM154.932 131.46C154.932 131.668 154.92 131.888 154.896 132.12H149.64C149.68 132.768 149.9 133.276 150.3 133.644C150.708 134.004 151.2 134.184 151.776 134.184C152.248 134.184 152.64 134.076 152.952 133.86C153.272 133.636 153.496 133.34 153.624 132.972H154.8C154.624 133.604 154.272 134.12 153.744 134.52C153.216 134.912 152.56 135.108 151.776 135.108C151.152 135.108 150.592 134.968 150.096 134.688C149.608 134.408 149.224 134.012 148.944 133.5C148.664 132.98 148.524 132.38 148.524 131.7C148.524 131.02 148.66 130.424 148.932 129.912C149.204 129.4 149.584 129.008 150.072 128.736C150.568 128.456 151.136 128.316 151.776 128.316C152.4 128.316 152.952 128.452 153.432 128.724C153.912 128.996 154.28 129.372 154.536 129.852C154.8 130.324 154.932 130.86 154.932 131.46ZM153.804 131.232C153.804 130.816 153.712 130.46 153.528 130.164C153.344 129.86 153.092 129.632 152.772 129.48C152.46 129.32 152.112 129.24 151.728 129.24C151.176 129.24 150.704 129.416 150.312 129.768C149.928 130.12 149.708 130.608 149.652 131.232H153.804ZM155.965 131.688C155.965 131.016 156.101 130.428 156.373 129.924C156.645 129.412 157.017 129.016 157.489 128.736C157.969 128.456 158.501 128.316 159.085 128.316C159.661 128.316 160.161 128.44 160.585 128.688C161.009 128.936 161.325 129.248 161.533 129.624V128.424H162.637V135H161.533V133.776C161.317 134.16 160.993 134.48 160.561 134.736C160.137 134.984 159.641 135.108 159.073 135.108C158.489 135.108 157.961 134.964 157.489 134.676C157.017 134.388 156.645 133.984 156.373 133.464C156.101 132.944 155.965 132.352 155.965 131.688ZM161.533 131.7C161.533 131.204 161.433 130.772 161.233 130.404C161.033 130.036 160.761 129.756 160.417 129.564C160.081 129.364 159.709 129.264 159.301 129.264C158.893 129.264 158.521 129.36 158.185 129.552C157.849 129.744 157.581 130.024 157.381 130.392C157.181 130.76 157.081 131.192 157.081 131.688C157.081 132.192 157.181 132.632 157.381 133.008C157.581 133.376 157.849 133.66 158.185 133.86C158.521 134.052 158.893 134.148 159.301 134.148C159.709 134.148 160.081 134.052 160.417 133.86C160.761 133.66 161.033 133.376 161.233 133.008C161.433 132.632 161.533 132.196 161.533 131.7ZM165.575 129.492C165.767 129.116 166.039 128.824 166.391 128.616C166.751 128.408 167.187 128.304 167.699 128.304V129.432H167.411C166.187 129.432 165.575 130.096 165.575 131.424V135H164.483V128.424H165.575V129.492ZM180.918 128.424L178.866 135H177.738L176.154 129.78L174.57 135H173.442L171.378 128.424H172.494L174.006 133.944L175.638 128.424H176.754L178.35 133.956L179.838 128.424H180.918ZM182.566 127.356C182.358 127.356 182.182 127.284 182.038 127.14C181.894 126.996 181.822 126.82 181.822 126.612C181.822 126.404 181.894 126.228 182.038 126.084C182.182 125.94 182.358 125.868 182.566 125.868C182.766 125.868 182.934 125.94 183.07 126.084C183.214 126.228 183.286 126.404 183.286 126.612C183.286 126.82 183.214 126.996 183.07 127.14C182.934 127.284 182.766 127.356 182.566 127.356ZM183.094 128.424V135H182.002V128.424H183.094ZM186.287 129.324V133.2C186.287 133.52 186.355 133.748 186.491 133.884C186.627 134.012 186.863 134.076 187.199 134.076H188.003V135H187.019C186.411 135 185.955 134.86 185.651 134.58C185.347 134.3 185.195 133.84 185.195 133.2V129.324H184.343V128.424H185.195V126.768H186.287V128.424H188.003V129.324H186.287ZM192.59 128.304C193.086 128.304 193.534 128.412 193.934 128.628C194.334 128.836 194.646 129.152 194.87 129.576C195.102 130 195.218 130.516 195.218 131.124V135H194.138V131.28C194.138 130.624 193.974 130.124 193.646 129.78C193.318 129.428 192.87 129.252 192.302 129.252C191.726 129.252 191.266 129.432 190.922 129.792C190.586 130.152 190.418 130.676 190.418 131.364V135H189.326V126.12H190.418V129.36C190.634 129.024 190.93 128.764 191.306 128.58C191.69 128.396 192.118 128.304 192.59 128.304ZM201.533 129.324V133.2C201.533 133.52 201.601 133.748 201.737 133.884C201.873 134.012 202.109 134.076 202.445 134.076H203.249V135H202.265C201.657 135 201.201 134.86 200.897 134.58C200.593 134.3 200.441 133.84 200.441 133.2V129.324H199.589V128.424H200.441V126.768H201.533V128.424H203.249V129.324H201.533ZM207.836 128.304C208.332 128.304 208.78 128.412 209.18 128.628C209.58 128.836 209.892 129.152 210.116 129.576C210.348 130 210.464 130.516 210.464 131.124V135H209.384V131.28C209.384 130.624 209.22 130.124 208.892 129.78C208.564 129.428 208.116 129.252 207.548 129.252C206.972 129.252 206.512 129.432 206.168 129.792C205.832 130.152 205.664 130.676 205.664 131.364V135H204.572V126.12H205.664V129.36C205.88 129.024 206.176 128.764 206.552 128.58C206.936 128.396 207.364 128.304 207.836 128.304ZM218.248 131.46C218.248 131.668 218.236 131.888 218.212 132.12H212.956C212.996 132.768 213.216 133.276 213.616 133.644C214.024 134.004 214.516 134.184 215.092 134.184C215.564 134.184 215.956 134.076 216.268 133.86C216.588 133.636 216.812 133.34 216.94 132.972H218.116C217.94 133.604 217.588 134.12 217.06 134.52C216.532 134.912 215.876 135.108 215.092 135.108C214.468 135.108 213.908 134.968 213.412 134.688C212.924 134.408 212.54 134.012 212.26 133.5C211.98 132.98 211.84 132.38 211.84 131.7C211.84 131.02 211.976 130.424 212.248 129.912C212.52 129.4 212.9 129.008 213.388 128.736C213.884 128.456 214.452 128.316 215.092 128.316C215.716 128.316 216.268 128.452 216.748 128.724C217.228 128.996 217.596 129.372 217.852 129.852C218.116 130.324 218.248 130.86 218.248 131.46ZM217.12 131.232C217.12 130.816 217.028 130.46 216.844 130.164C216.66 129.86 216.408 129.632 216.088 129.48C215.776 129.32 215.428 129.24 215.044 129.24C214.492 129.24 214.02 129.416 213.628 129.768C213.244 130.12 213.024 130.608 212.968 131.232H217.12ZM145.188 143.304C145.684 143.304 146.132 143.412 146.532 143.628C146.932 143.836 147.244 144.152 147.468 144.576C147.7 145 147.816 145.516 147.816 146.124V150H146.736V146.28C146.736 145.624 146.572 145.124 146.244 144.78C145.916 144.428 145.468 144.252 144.9 144.252C144.324 144.252 143.864 144.432 143.52 144.792C143.184 145.152 143.016 145.676 143.016 146.364V150H141.924V141.12H143.016V144.36C143.232 144.024 143.528 143.764 143.904 143.58C144.288 143.396 144.716 143.304 145.188 143.304ZM150.164 142.356C149.956 142.356 149.78 142.284 149.636 142.14C149.492 141.996 149.42 141.82 149.42 141.612C149.42 141.404 149.492 141.228 149.636 141.084C149.78 140.94 149.956 140.868 150.164 140.868C150.364 140.868 150.532 140.94 150.668 141.084C150.812 141.228 150.884 141.404 150.884 141.612C150.884 141.82 150.812 141.996 150.668 142.14C150.532 142.284 150.364 142.356 150.164 142.356ZM150.692 143.424V150H149.6V143.424H150.692ZM155.265 143.316C155.833 143.316 156.329 143.44 156.753 143.688C157.185 143.936 157.505 144.248 157.713 144.624V143.424H158.817V150.144C158.817 150.744 158.689 151.276 158.433 151.74C158.177 152.212 157.809 152.58 157.329 152.844C156.857 153.108 156.305 153.24 155.673 153.24C154.809 153.24 154.089 153.036 153.513 152.628C152.937 152.22 152.597 151.664 152.493 150.96H153.573C153.693 151.36 153.941 151.68 154.317 151.92C154.693 152.168 155.145 152.292 155.673 152.292C156.273 152.292 156.761 152.104 157.137 151.728C157.521 151.352 157.713 150.824 157.713 150.144V148.764C157.497 149.148 157.177 149.468 156.753 149.724C156.329 149.98 155.833 150.108 155.265 150.108C154.681 150.108 154.149 149.964 153.669 149.676C153.197 149.388 152.825 148.984 152.553 148.464C152.281 147.944 152.145 147.352 152.145 146.688C152.145 146.016 152.281 145.428 152.553 144.924C152.825 144.412 153.197 144.016 153.669 143.736C154.149 143.456 154.681 143.316 155.265 143.316ZM157.713 146.7C157.713 146.204 157.613 145.772 157.413 145.404C157.213 145.036 156.941 144.756 156.597 144.564C156.261 144.364 155.889 144.264 155.481 144.264C155.073 144.264 154.701 144.36 154.365 144.552C154.029 144.744 153.761 145.024 153.561 145.392C153.361 145.76 153.261 146.192 153.261 146.688C153.261 147.192 153.361 147.632 153.561 148.008C153.761 148.376 154.029 148.66 154.365 148.86C154.701 149.052 155.073 149.148 155.481 149.148C155.889 149.148 156.261 149.052 156.597 148.86C156.941 148.66 157.213 148.376 157.413 148.008C157.613 147.632 157.713 147.196 157.713 146.7ZM163.926 143.304C164.422 143.304 164.87 143.412 165.27 143.628C165.67 143.836 165.982 144.152 166.206 144.576C166.438 145 166.554 145.516 166.554 146.124V150H165.474V146.28C165.474 145.624 165.31 145.124 164.982 144.78C164.654 144.428 164.206 144.252 163.638 144.252C163.062 144.252 162.602 144.432 162.258 144.792C161.922 145.152 161.754 145.676 161.754 146.364V150H160.662V141.12H161.754V144.36C161.97 144.024 162.266 143.764 162.642 143.58C163.026 143.396 163.454 143.304 163.926 143.304ZM174.338 146.46C174.338 146.668 174.326 146.888 174.302 147.12H169.046C169.086 147.768 169.306 148.276 169.706 148.644C170.114 149.004 170.606 149.184 171.182 149.184C171.654 149.184 172.046 149.076 172.358 148.86C172.678 148.636 172.902 148.34 173.03 147.972H174.206C174.03 148.604 173.678 149.12 173.15 149.52C172.622 149.912 171.966 150.108 171.182 150.108C170.558 150.108 169.998 149.968 169.502 149.688C169.014 149.408 168.63 149.012 168.35 148.5C168.07 147.98 167.93 147.38 167.93 146.7C167.93 146.02 168.066 145.424 168.338 144.912C168.61 144.4 168.99 144.008 169.478 143.736C169.974 143.456 170.542 143.316 171.182 143.316C171.806 143.316 172.358 143.452 172.838 143.724C173.318 143.996 173.686 144.372 173.942 144.852C174.206 145.324 174.338 145.86 174.338 146.46ZM173.21 146.232C173.21 145.816 173.118 145.46 172.934 145.164C172.75 144.86 172.498 144.632 172.178 144.48C171.866 144.32 171.518 144.24 171.134 144.24C170.582 144.24 170.11 144.416 169.718 144.768C169.334 145.12 169.114 145.608 169.058 146.232H173.21ZM178.107 150.108C177.603 150.108 177.151 150.024 176.751 149.856C176.351 149.68 176.035 149.44 175.803 149.136C175.571 148.824 175.443 148.468 175.419 148.068H176.547C176.579 148.396 176.731 148.664 177.003 148.872C177.283 149.08 177.647 149.184 178.095 149.184C178.511 149.184 178.839 149.092 179.079 148.908C179.319 148.724 179.439 148.492 179.439 148.212C179.439 147.924 179.311 147.712 179.055 147.576C178.799 147.432 178.403 147.292 177.867 147.156C177.379 147.028 176.979 146.9 176.667 146.772C176.363 146.636 176.099 146.44 175.875 146.184C175.659 145.92 175.551 145.576 175.551 145.152C175.551 144.816 175.651 144.508 175.851 144.228C176.051 143.948 176.335 143.728 176.703 143.568C177.071 143.4 177.491 143.316 177.963 143.316C178.691 143.316 179.279 143.5 179.727 143.868C180.175 144.236 180.415 144.74 180.447 145.38H179.355C179.331 145.036 179.191 144.76 178.935 144.552C178.687 144.344 178.351 144.24 177.927 144.24C177.535 144.24 177.223 144.324 176.991 144.492C176.759 144.66 176.643 144.88 176.643 145.152C176.643 145.368 176.711 145.548 176.847 145.692C176.991 145.828 177.167 145.94 177.375 146.028C177.591 146.108 177.887 146.2 178.263 146.304C178.735 146.432 179.119 146.56 179.415 146.688C179.711 146.808 179.963 146.992 180.171 147.24C180.387 147.488 180.499 147.812 180.507 148.212C180.507 148.572 180.407 148.896 180.207 149.184C180.007 149.472 179.723 149.7 179.355 149.868C178.995 150.028 178.579 150.108 178.107 150.108ZM183.381 144.324V148.2C183.381 148.52 183.449 148.748 183.585 148.884C183.721 149.012 183.957 149.076 184.293 149.076H185.097V150H184.113C183.505 150 183.049 149.86 182.745 149.58C182.441 149.3 182.289 148.84 182.289 148.2V144.324H181.437V143.424H182.289V141.768H183.381V143.424H185.097V144.324H183.381ZM189.211 146.7C189.211 146.02 189.347 145.428 189.619 144.924C189.891 144.412 190.267 144.016 190.747 143.736C191.235 143.456 191.791 143.316 192.415 143.316C193.223 143.316 193.887 143.512 194.407 143.904C194.935 144.296 195.283 144.84 195.451 145.536H194.275C194.163 145.136 193.943 144.82 193.615 144.588C193.295 144.356 192.895 144.24 192.415 144.24C191.791 144.24 191.287 144.456 190.903 144.888C190.519 145.312 190.327 145.916 190.327 146.7C190.327 147.492 190.519 148.104 190.903 148.536C191.287 148.968 191.791 149.184 192.415 149.184C192.895 149.184 193.295 149.072 193.615 148.848C193.935 148.624 194.155 148.304 194.275 147.888H195.451C195.275 148.56 194.923 149.1 194.395 149.508C193.867 149.908 193.207 150.108 192.415 150.108C191.791 150.108 191.235 149.968 190.747 149.688C190.267 149.408 189.891 149.012 189.619 148.5C189.347 147.988 189.211 147.388 189.211 146.7ZM198 141.12V150H196.908V141.12H198ZM202.73 150.108C202.114 150.108 201.554 149.968 201.05 149.688C200.554 149.408 200.162 149.012 199.874 148.5C199.594 147.98 199.454 147.38 199.454 146.7C199.454 146.028 199.598 145.436 199.886 144.924C200.182 144.404 200.582 144.008 201.086 143.736C201.59 143.456 202.154 143.316 202.778 143.316C203.402 143.316 203.966 143.456 204.47 143.736C204.974 144.008 205.37 144.4 205.658 144.912C205.954 145.424 206.102 146.02 206.102 146.7C206.102 147.38 205.95 147.98 205.646 148.5C205.35 149.012 204.946 149.408 204.434 149.688C203.922 149.968 203.354 150.108 202.73 150.108ZM202.73 149.148C203.122 149.148 203.49 149.056 203.834 148.872C204.178 148.688 204.454 148.412 204.662 148.044C204.878 147.676 204.986 147.228 204.986 146.7C204.986 146.172 204.882 145.724 204.674 145.356C204.466 144.988 204.194 144.716 203.858 144.54C203.522 144.356 203.158 144.264 202.766 144.264C202.366 144.264 201.998 144.356 201.662 144.54C201.334 144.716 201.07 144.988 200.87 145.356C200.67 145.724 200.57 146.172 200.57 146.7C200.57 147.236 200.666 147.688 200.858 148.056C201.058 148.424 201.322 148.7 201.65 148.884C201.978 149.06 202.338 149.148 202.73 149.148ZM213.369 143.424V150H212.277V149.028C212.069 149.364 211.777 149.628 211.401 149.82C211.033 150.004 210.625 150.096 210.177 150.096C209.665 150.096 209.205 149.992 208.797 149.784C208.389 149.568 208.065 149.248 207.825 148.824C207.593 148.4 207.477 147.884 207.477 147.276V143.424H208.557V147.132C208.557 147.78 208.721 148.28 209.049 148.632C209.377 148.976 209.825 149.148 210.393 149.148C210.977 149.148 211.437 148.968 211.773 148.608C212.109 148.248 212.277 147.724 212.277 147.036V143.424H213.369ZM214.805 146.688C214.805 146.016 214.941 145.428 215.213 144.924C215.485 144.412 215.857 144.016 216.329 143.736C216.809 143.456 217.345 143.316 217.937 143.316C218.449 143.316 218.925 143.436 219.365 143.676C219.805 143.908 220.141 144.216 220.373 144.6V141.12H221.477V150H220.373V148.764C220.157 149.156 219.837 149.48 219.413 149.736C218.989 149.984 218.493 150.108 217.925 150.108C217.341 150.108 216.809 149.964 216.329 149.676C215.857 149.388 215.485 148.984 215.213 148.464C214.941 147.944 214.805 147.352 214.805 146.688ZM220.373 146.7C220.373 146.204 220.273 145.772 220.073 145.404C219.873 145.036 219.601 144.756 219.257 144.564C218.921 144.364 218.549 144.264 218.141 144.264C217.733 144.264 217.361 144.36 217.025 144.552C216.689 144.744 216.421 145.024 216.221 145.392C216.021 145.76 215.921 146.192 215.921 146.688C215.921 147.192 216.021 147.632 216.221 148.008C216.421 148.376 216.689 148.66 217.025 148.86C217.361 149.052 217.733 149.148 218.141 149.148C218.549 149.148 218.921 149.052 219.257 148.86C219.601 148.66 219.873 148.376 220.073 148.008C220.273 147.632 220.373 147.196 220.373 146.7ZM226.102 143.28C226.102 142.736 226.266 142.304 226.594 141.984C226.922 141.656 227.342 141.492 227.854 141.492C228.366 141.492 228.786 141.656 229.114 141.984C229.442 142.304 229.606 142.736 229.606 143.28C229.606 143.832 229.442 144.272 229.114 144.6C228.786 144.92 228.366 145.08 227.854 145.08C227.342 145.08 226.922 144.92 226.594 144.6C226.266 144.272 226.102 143.832 226.102 143.28ZM233.11 141.624L228.25 150H227.17L232.03 141.624H233.11ZM227.854 142.164C227.582 142.164 227.366 142.26 227.206 142.452C227.054 142.636 226.978 142.912 226.978 143.28C226.978 143.648 227.054 143.928 227.206 144.12C227.366 144.312 227.582 144.408 227.854 144.408C228.126 144.408 228.342 144.312 228.502 144.12C228.662 143.92 228.742 143.64 228.742 143.28C228.742 142.912 228.662 142.636 228.502 142.452C228.342 142.26 228.126 142.164 227.854 142.164ZM230.698 148.344C230.698 147.792 230.862 147.356 231.19 147.036C231.518 146.708 231.938 146.544 232.45 146.544C232.962 146.544 233.378 146.708 233.698 147.036C234.026 147.356 234.19 147.792 234.19 148.344C234.19 148.888 234.026 149.324 233.698 149.652C233.378 149.98 232.962 150.144 232.45 150.144C231.938 150.144 231.518 149.984 231.19 149.664C230.862 149.336 230.698 148.896 230.698 148.344ZM232.438 147.228C232.166 147.228 231.95 147.324 231.79 147.516C231.63 147.7 231.55 147.976 231.55 148.344C231.55 148.704 231.63 148.98 231.79 149.172C231.95 149.356 232.166 149.448 232.438 149.448C232.71 149.448 232.926 149.356 233.086 149.172C233.246 148.98 233.326 148.704 233.326 148.344C233.326 147.976 233.246 147.7 233.086 147.516C232.926 147.324 232.71 147.228 232.438 147.228ZM235.975 150.072C235.767 150.072 235.591 150 235.447 149.856C235.303 149.712 235.231 149.536 235.231 149.328C235.231 149.12 235.303 148.944 235.447 148.8C235.591 148.656 235.767 148.584 235.975 148.584C236.175 148.584 236.343 148.656 236.479 148.8C236.623 148.944 236.695 149.12 236.695 149.328C236.695 149.536 236.623 149.712 236.479 149.856C236.343 150 236.175 150.072 235.975 150.072Z" fill="#646464"/>
<path d="M129.354 44.3535C129.549 44.1583 129.549 43.8417 129.354 43.6464L126.172 40.4645C125.976 40.2692 125.66 40.2692 125.464 40.4645C125.269 40.6597 125.269 40.9763 125.464 41.1716L128.293 44L125.464 46.8284C125.269 47.0237 125.269 47.3403 125.464 47.5355C125.66 47.7308 125.976 47.7308 126.172 47.5355L129.354 44.3535ZM14 44.5L14.9914 44.5L14.9914 43.5L14 43.5L14 44.5ZM16.9741 44.5L18.9569 44.5L18.9569 43.5L16.9741 43.5L16.9741 44.5ZM20.9397 44.5L22.9224 44.5L22.9224 43.5L20.9397 43.5L20.9397 44.5ZM24.9052 44.5L26.8879 44.5L26.8879 43.5L24.9052 43.5L24.9052 44.5ZM28.8707 44.5L30.8534 44.5L30.8534 43.5L28.8707 43.5L28.8707 44.5ZM32.8362 44.5L34.819 44.5L34.819 43.5L32.8362 43.5L32.8362 44.5ZM36.8017 44.5L38.7845 44.5L38.7845 43.5L36.8017 43.5L36.8017 44.5ZM40.7672 44.5L42.75 44.5L42.75 43.5L40.7672 43.5L40.7672 44.5ZM44.7328 44.5L46.7155 44.5L46.7155 43.5L44.7328 43.5L44.7328 44.5ZM48.6983 44.5L50.681 44.5L50.681 43.5L48.6983 43.5L48.6983 44.5ZM52.6638 44.5L54.6465 44.5L54.6465 43.5L52.6638 43.5L52.6638 44.5ZM56.6293 44.5L58.6121 44.5L58.6121 43.5L56.6293 43.5L56.6293 44.5ZM60.5948 44.5L62.5776 44.5L62.5776 43.5L60.5948 43.5L60.5948 44.5ZM64.5603 44.5L66.5431 44.5L66.5431 43.5L64.5603 43.5L64.5603 44.5ZM68.5258 44.5L70.5086 44.5L70.5086 43.5L68.5258 43.5L68.5258 44.5ZM72.4914 44.5L74.4741 44.5L74.4741 43.5L72.4914 43.5L72.4914 44.5ZM76.4569 44.5L78.4396 44.5L78.4396 43.5L76.4569 43.5L76.4569 44.5ZM80.4224 44.5L82.4051 44.5L82.4051 43.5L80.4224 43.5L80.4224 44.5ZM84.3879 44.5L86.3707 44.5L86.3707 43.5L84.3879 43.5L84.3879 44.5ZM88.3534 44.5L90.3362 44.5L90.3362 43.5L88.3534 43.5L88.3534 44.5ZM92.3189 44.5L94.3017 44.5L94.3017 43.5L92.3189 43.5L92.3189 44.5ZM96.2844 44.5L98.2672 44.5L98.2672 43.5L96.2844 43.5L96.2844 44.5ZM100.25 44.5L102.233 44.5L102.233 43.5L100.25 43.5L100.25 44.5ZM104.215 44.5L106.198 44.5L106.198 43.5L104.215 43.5L104.215 44.5ZM108.181 44.5L110.164 44.5L110.164 43.5L108.181 43.5L108.181 44.5ZM112.147 44.5L114.129 44.5L114.129 43.5L112.147 43.5L112.147 44.5ZM116.112 44.5L118.095 44.5L118.095 43.5L116.112 43.5L116.112 44.5ZM120.078 44.5L122.06 44.5L122.06 43.5L120.078 43.5L120.078 44.5ZM124.043 44.5L126.026 44.5L126.026 43.5L124.043 43.5L124.043 44.5ZM128.009 44.5L129 44.5L129 43.5L128.009 43.5L128.009 44.5Z" fill="#AEA8A8"/>
<path d="M128.646 169.354C128.842 169.549 129.158 169.549 129.354 169.354L132.536 166.172C132.731 165.976 132.731 165.66 132.536 165.464C132.34 165.269 132.024 165.269 131.828 165.464L129 168.293L126.172 165.464C125.976 165.269 125.66 165.269 125.464 165.464C125.269 165.66 125.269 165.976 125.464 166.172L128.646 169.354ZM128.5 59L128.5 59.9821L129.5 59.9821L129.5 59L128.5 59ZM128.5 61.9464L128.5 63.9107L129.5 63.9107L129.5 61.9464L128.5 61.9464ZM128.5 65.875L128.5 67.8393L129.5 67.8393L129.5 65.875L128.5 65.875ZM128.5 69.8036L128.5 71.7679L129.5 71.7679L129.5 69.8036L128.5 69.8036ZM128.5 73.7321L128.5 75.6964L129.5 75.6964L129.5 73.7321L128.5 73.7321ZM128.5 77.6607L128.5 79.625L129.5 79.625L129.5 77.6607L128.5 77.6607ZM128.5 81.5893L128.5 83.5536L129.5 83.5536L129.5 81.5893L128.5 81.5893ZM128.5 85.5179L128.5 87.4821L129.5 87.4821L129.5 85.5179L128.5 85.5179ZM128.5 89.4464L128.5 91.4107L129.5 91.4107L129.5 89.4464L128.5 89.4464ZM128.5 93.375L128.5 95.3393L129.5 95.3393L129.5 93.375L128.5 93.375ZM128.5 97.3036L128.5 99.2679L129.5 99.2679L129.5 97.3036L128.5 97.3036ZM128.5 101.232L128.5 103.196L129.5 103.196L129.5 101.232L128.5 101.232ZM128.5 105.161L128.5 107.125L129.5 107.125L129.5 105.161L128.5 105.161ZM128.5 109.089L128.5 111.054L129.5 111.054L129.5 109.089L128.5 109.089ZM128.5 113.018L128.5 114.982L129.5 114.982L129.5 113.018L128.5 113.018ZM128.5 116.946L128.5 118.911L129.5 118.911L129.5 116.946L128.5 116.946ZM128.5 120.875L128.5 122.839L129.5 122.839L129.5 120.875L128.5 120.875ZM128.5 124.804L128.5 126.768L129.5 126.768L129.5 124.804L128.5 124.804ZM128.5 128.732L128.5 130.696L129.5 130.696L129.5 128.732L128.5 128.732ZM128.5 132.661L128.5 134.625L129.5 134.625L129.5 132.661L128.5 132.661ZM128.5 136.589L128.5 138.554L129.5 138.554L129.5 136.589L128.5 136.589ZM128.5 140.518L128.5 142.482L129.5 142.482L129.5 140.518L128.5 140.518ZM128.5 144.446L128.5 146.411L129.5 146.411L129.5 144.446L128.5 144.446ZM128.5 148.375L128.5 150.339L129.5 150.339L129.5 148.375L128.5 148.375ZM128.5 152.304L128.5 154.268L129.5 154.268L129.5 152.304L128.5 152.304ZM128.5 156.232L128.5 158.196L129.5 158.196L129.5 156.232L128.5 156.232ZM128.5 160.161L128.5 162.125L129.5 162.125L129.5 160.161L128.5 160.161ZM128.5 164.089L128.5 166.054L129.5 166.054L129.5 164.089L128.5 164.089ZM128.5 168.018L128.5 169L129.5 169L129.5 168.018L128.5 168.018Z" fill="#AEA8A8"/>
<path d="M123 172.5C134 177 152.6 172.2 155 157" stroke="#646464"/>
<path d="M2.5 49.5C2.66667 44 5.3 31.7 14.5 26.5" stroke="#646464"/>
</svg>
