<svg xmlns="http://www.w3.org/2000/svg" viewBox="0 0 565.7 624.47"><defs><style>.cls-1{fill:#878787;}</style></defs><g id="Layer_2" data-name="Layer 2"><g id="Layer_1-2" data-name="Layer 1"><path class="cls-1" d="M527.91,399.41l-1.19-261.09-331.89,76c.15,161-.07,278.57-.25,296.17a165.73,165.73,0,0,1-1.92,22.78c-1.24,8.1-2.41,15.48-6,24.22-3.93,9.59-8.75,15.91-12.94,21.33a121.4,121.4,0,0,1-52.27,38.61,113.86,113.86,0,0,1-35,6.95,111.78,111.78,0,0,1-38.85-5.28C41.08,617,34.74,614.9,27.47,610c-4.19-2.81-19.34-12.62-24.94-31.64-4.89-16.6-1.59-30.28.72-39.56,7.61-30.52,29.42-47.31,36.92-52.51,21-14.55,49.31-17.7,63.83-17.87,31.43-.38,39.91,5.25,51.81,9.74V97.36L565.7,0V430.85a164.12,164.12,0,0,1-1.92,22.78c-1.23,8.1-2.41,15.47-6,24.21-3.93,9.6-8.75,15.92-12.95,21.34a121.16,121.16,0,0,1-52.26,38.6,113.58,113.58,0,0,1-35,7,111.71,111.71,0,0,1-38.84-5.28c-6.53-2.14-12.86-4.21-20.14-9.11-4.18-2.81-19.33-12.62-24.93-31.65-4.89-16.59-1.6-30.28.72-39.56,7.6-30.51,29.41-47.3,36.92-52.5,21-14.55,49.31-17.7,63.83-17.87,31.42-.38,40.89,6.15,52.78,10.64Z"/></g></g></svg>